<svg width="20" height="20" viewBox="0 0 20 20" fill="none" xmlns="http://www.w3.org/2000/svg">
<g clip-path="url(#clip0_1289_4110)">
<g clip-path="url(#clip1_1289_4110)">
<path d="M18.1738 0C18.0435 0 17.9133 0.0501563 17.8141 0.14974L16.7952 1.16699L18.833 3.20475L19.8503 2.18587C20.0494 1.98671 20.0494 1.6648 19.8503 1.46647L18.5335 0.14974C18.4339 0.0501563 18.3041 0 18.1738 0ZM16.0742 1.88802L10 7.96387V10H12.0361L18.112 3.92415L16.0742 1.88802ZM4.16667 2.5C3.2475 2.5 2.5 3.2475 2.5 4.16667V15.8333C2.5 16.7525 3.2475 17.5 4.16667 17.5H15.8333C16.7525 17.5 17.5 16.7525 17.5 15.8333V6.8929L15.835 8.55957V15.8333H4.16667V7.5H8.1071L9.77376 5.83333H4.16667V4.16667H11.4404L13.1071 2.5H4.16667Z" fill="black"/>
</g>
</g>
<defs>
<clipPath id="clip0_1289_4110">
<rect width="20" height="20" fill="white"/>
</clipPath>
<clipPath id="clip1_1289_4110">
<rect width="20" height="20" fill="white"/>
</clipPath>
</defs>
</svg>
