<svg width="20" height="20" viewBox="0 0 20 20" fill="none" xmlns="http://www.w3.org/2000/svg">
<g clip-path="url(#clip0_1712_2252)">
<path d="M5.83341 5H4.16675V6.66667H5.83341V5Z" fill="black"/>
<path d="M8.33341 5H6.66675V6.66667H8.33341V5Z" fill="black"/>
<path d="M10.8334 5H9.16675V6.66667H10.8334V5Z" fill="black"/>
<path d="M15.8334 5H14.1667V6.66667H15.8334V5Z" fill="black"/>
<path d="M10.8334 7.5H6.66675V9.16667H10.8334V7.5Z" fill="black"/>
<path d="M15.8334 7.5H14.1667V9.16667H15.8334V7.5Z" fill="black"/>
<path d="M5.83341 7.5H4.16675V9.16667H5.83341V7.5Z" fill="black"/>
<path d="M12.5 5L12.51 10.8375L12.5 5Z" fill="white"/>
<path d="M12.5 5L12.51 10.8375" stroke="black" stroke-width="2" stroke-miterlimit="10"/>
<path d="M4.16675 11.6667H2.50008C2.04008 11.6667 1.66675 11.2933 1.66675 10.8333V3.33333C1.66675 2.87333 2.04008 2.5 2.50008 2.5H17.5001C17.9601 2.5 18.3334 2.87333 18.3334 3.33333V10.8333C18.3334 11.2933 17.9601 11.6667 17.5001 11.6667H15.0001" stroke="black" stroke-width="2" stroke-miterlimit="10" stroke-linejoin="round"/>
<path d="M12.5166 10.75V13.1917L13.6416 13.9417C13.9999 14.1417 14.1074 14.425 14.1416 14.575C14.2066 14.8583 14.1532 15.1383 14.0082 15.3583L12.4082 17.7917C12.2082 18.1333 11.8332 18.3333 11.4332 18.3333H7.50822C6.58739 18.3333 5.84155 17.5875 5.84155 16.6667V13.0633C5.84155 12.2233 6.46572 11.515 7.29905 11.41L12.5166 10.75Z" stroke="black" stroke-width="2" stroke-miterlimit="10"/>
</g>
<defs>
<clipPath id="clip0_1712_2252">
<rect width="20" height="20" fill="white"/>
</clipPath>
</defs>
</svg>
