<svg width="20" height="20" viewBox="0 0 20 20" fill="none" xmlns="http://www.w3.org/2000/svg">
<g clip-path="url(#clip0_1712_2237)">
<path d="M10 3.33325C9.70766 3.33348 9.42053 3.4106 9.16741 3.55687C8.9143 3.70314 8.70411 3.91341 8.55794 4.16659H1.66667V5.83325H3.33333L0 12.4999C0 14.8008 1.86583 16.6666 4.16667 16.6666C6.4675 16.6666 8.33333 14.8008 8.33333 12.4999L5 5.83325H8.55957C8.7056 6.08618 8.91553 6.2963 9.16834 6.44256C9.42114 6.58881 9.70794 6.66607 10 6.66658C10.2923 6.66635 10.5795 6.58923 10.8326 6.44296C11.0857 6.2967 11.2959 6.08642 11.4421 5.83325H15L11.6667 12.4999C11.6667 14.8008 13.5325 16.6666 15.8333 16.6666C18.1342 16.6666 20 14.8008 20 12.4999L16.6667 5.83325H18.3333V4.16659H11.4404C11.2944 3.91365 11.0845 3.70353 10.8317 3.55728C10.5789 3.41102 10.2921 3.33377 10 3.33325ZM4.16667 7.51782L6.24023 11.6666H2.0931L4.16667 7.51782ZM15.8333 7.51782L17.9069 11.6666H13.7598L15.8333 7.51782ZM1.81966 13.3333H6.51367C6.16943 14.3023 5.25385 14.9999 4.16667 14.9999C3.07948 14.9999 2.1639 14.3023 1.81966 13.3333ZM13.4863 13.3333H18.1803C17.8361 14.3023 16.9205 14.9999 15.8333 14.9999C14.7461 14.9999 13.8306 14.3023 13.4863 13.3333Z" fill="black"/>
</g>
<defs>
<clipPath id="clip0_1712_2237">
<rect width="20" height="20" fill="white"/>
</clipPath>
</defs>
</svg>
